<svg xmlns="http://www.w3.org/2000/svg" width="1714.0" height="508.475" viewBox="0 0 1714.0 508.475">
	<!-- Generated by PyTermGUI -->
	<style type="text/css">
        text.ptg {
            font-size: 15px;
            font-family: Menlo, 'DejaVu Sans Mono', consolas, 'Courier New', monospace;
            font-feature-settings: normal;
            /* Inline SVGs are `antialiased` by default, while `src=`-d ones are `auto`.*/
            -webkit-font-smoothing: auto;
        }
        .ptg-title {
            font-family: 'arial';
            fill: #94999A;
            font-size: 13px;
            font-weight: bold;
        }
        .ptg-0 {font-weight: bold; fill:#00afaf}
        .ptg-1 {opacity: 0.7; fill:#008787}
        .ptg-2 {fill:#00afaf}
        .ptg-3 {opacity: 0.7; fill:#875f00}
        .ptg-4 {opacity: 0.7; fill:#00af87}
    </style>
	<g>
		<rect x="0" y="20" rx="9px" ry="9px" stroke-width="1px" stroke-linejoin="round" width="1714.0" height="468.475" fill="#141414"/>
		<circle cx="15" cy="35" r="6" fill="#ff6159"/>
		<circle cx="35" cy="35" r="6" fill="#ffbd2e"/>
		<circle cx="55" cy="35" r="6" fill="#28c941"/>
		<text x="857.0" y="38.975" text-anchor="middle" class="ptg-title">C:\Users\djeys\AppData\Local\pypoetry\Cache\virtualenvs\pytermgui-QEz_ZQIa-py3.12\Scripts\\ptg</text>
	</g>
	<g transform="translate(20, 55)">
		<rect x="-0.7" y="0.75" fill="#141414" width="104.35" height="20.49"/>
		<text dy="-0.25em" x="-0.7" y="18.98" textLength="102.3" class="ptg ptg-0">  PyTermGUI</text>
		<rect x="101.6" y="0.75" fill="#141414" width="9.49" height="20.49"/>
		<text dy="-0.25em" x="101.6" y="18.98" textLength="9.3" class="ptg ptg-0"> </text>
		<rect x="110.9" y="0.75" fill="#141414" width="9.49" height="20.49"/>
		<text dy="-0.25em" x="110.9" y="18.98" textLength="9.3" class="ptg ptg-0"> </text>
		<rect x="120.2" y="0.75" fill="#141414" width="9.49" height="20.49"/>
		<text dy="-0.25em" x="120.2" y="18.98" textLength="9.3" class="ptg ptg-0"> </text>
		<rect x="129.5" y="0.75" fill="#141414" width="9.49" height="20.49"/>
		<text dy="-0.25em" x="129.5" y="18.98" textLength="9.3" class="ptg ptg-0"> </text>
		<rect x="138.8" y="0.75" fill="#141414" width="9.49" height="20.49"/>
		<text dy="-0.25em" x="138.8" y="18.98" textLength="9.3" class="ptg ptg-0"> </text>
		<rect x="148.1" y="0.75" fill="#141414" width="9.49" height="20.49"/>
		<text dy="-0.25em" x="148.1" y="18.98" textLength="9.3" class="ptg ptg-0"> </text>
		<rect x="157.4" y="0.75" fill="#141414" width="9.49" height="20.49"/>
		<text dy="-0.25em" x="157.4" y="18.98" textLength="9.3" class="ptg ptg-0"> </text>
		<rect x="166.7" y="0.75" fill="#141414" width="9.49" height="20.49"/>
		<text dy="-0.25em" x="166.7" y="18.98" textLength="9.3" class="ptg ptg-0"> </text>
		<rect x="176.0" y="0.75" fill="#141414" width="9.49" height="20.49"/>
		<text dy="-0.25em" x="176.0" y="18.98" textLength="9.3" class="ptg ptg-0"> </text>
		<rect x="185.3" y="0.75" fill="#141414" width="9.49" height="20.49"/>
		<text dy="-0.25em" x="185.3" y="18.98" textLength="9.3" class="ptg ptg-0"> </text>
		<rect x="194.6" y="0.75" fill="#141414" width="9.49" height="20.49"/>
		<text dy="-0.25em" x="194.6" y="18.98" textLength="9.3" class="ptg ptg-0"> </text>
		<rect x="203.9" y="0.75" fill="#141414" width="9.49" height="20.49"/>
		<text dy="-0.25em" x="203.9" y="18.98" textLength="9.3" class="ptg ptg-0"> </text>
		<rect x="213.2" y="0.75" fill="#141414" width="9.49" height="20.49"/>
		<text dy="-0.25em" x="213.2" y="18.98" textLength="9.3" class="ptg ptg-0"> </text>
		<rect x="222.5" y="0.75" fill="#141414" width="9.49" height="20.49"/>
		<text dy="-0.25em" x="222.5" y="18.98" textLength="9.3" class="ptg ptg-0"> </text>
		<rect x="231.8" y="0.75" fill="#141414" width="9.49" height="20.49"/>
		<text dy="-0.25em" x="231.8" y="18.98" textLength="9.3" class="ptg ptg-0"> </text>
		<rect x="241.1" y="0.75" fill="#141414" width="9.49" height="20.49"/>
		<text dy="-0.25em" x="241.1" y="18.98" textLength="9.3" class="ptg ptg-0"> </text>
		<rect x="250.4" y="0.75" fill="#141414" width="9.49" height="20.49"/>
		<text dy="-0.25em" x="250.4" y="18.98" textLength="9.3" class="ptg ptg-0"> </text>
		<rect x="259.7" y="0.75" fill="#141414" width="9.49" height="20.49"/>
		<text dy="-0.25em" x="259.7" y="18.98" textLength="9.3" class="ptg ptg-0"> </text>
		<rect x="269.0" y="0.75" fill="#141414" width="9.49" height="20.49"/>
		<text dy="-0.25em" x="269.0" y="18.98" textLength="9.3" class="ptg ptg-0"> </text>
		<rect x="278.3" y="0.75" fill="#141414" width="9.49" height="20.49"/>
		<text dy="-0.25em" x="278.3" y="18.98" textLength="9.3" class="ptg ptg-0"> </text>
		<rect x="287.6" y="0.75" fill="#141414" width="9.49" height="20.49"/>
		<text dy="-0.25em" x="287.6" y="18.98" textLength="9.3" class="ptg ptg-0"> </text>
		<rect x="296.9" y="0.75" fill="#141414" width="9.49" height="20.49"/>
		<text dy="-0.25em" x="296.9" y="18.98" textLength="9.3" class="ptg ptg-0"> </text>
		<rect x="306.2" y="0.75" fill="#141414" width="9.49" height="20.49"/>
		<text dy="-0.25em" x="306.2" y="18.98" textLength="9.3" class="ptg ptg-0"> </text>
		<rect x="315.5" y="0.75" fill="#141414" width="9.49" height="20.49"/>
		<text dy="-0.25em" x="315.5" y="18.98" textLength="9.3" class="ptg ptg-0"> </text>
		<rect x="324.8" y="0.75" fill="#141414" width="9.49" height="20.49"/>
		<text dy="-0.25em" x="324.8" y="18.98" textLength="9.3" class="ptg ptg-0"> </text>
		<rect x="334.1" y="0.75" fill="#141414" width="9.49" height="20.49"/>
		<text dy="-0.25em" x="334.1" y="18.98" textLength="9.3" class="ptg ptg-0"> </text>
		<rect x="343.4" y="0.75" fill="#141414" width="9.49" height="20.49"/>
		<text dy="-0.25em" x="343.4" y="18.98" textLength="9.3" class="ptg ptg-0"> </text>
		<rect x="352.7" y="0.75" fill="#141414" width="9.49" height="20.49"/>
		<text dy="-0.25em" x="352.7" y="18.98" textLength="9.3" class="ptg ptg-0"> </text>
		<rect x="362.0" y="0.75" fill="#141414" width="9.49" height="20.49"/>
		<text dy="-0.25em" x="362.0" y="18.98" textLength="9.3" class="ptg ptg-0"> </text>
		<rect x="371.3" y="0.75" fill="#141414" width="9.49" height="20.49"/>
		<text dy="-0.25em" x="371.3" y="18.98" textLength="9.3" class="ptg ptg-0"> </text>
		<rect x="380.6" y="0.75" fill="#141414" width="9.49" height="20.49"/>
		<text dy="-0.25em" x="380.6" y="18.98" textLength="9.3" class="ptg ptg-0"> </text>
		<rect x="389.9" y="0.75" fill="#141414" width="9.49" height="20.49"/>
		<text dy="-0.25em" x="389.9" y="18.98" textLength="9.3" class="ptg ptg-0"> </text>
		<rect x="399.2" y="0.75" fill="#141414" width="9.49" height="20.49"/>
		<text dy="-0.25em" x="399.2" y="18.98" textLength="9.3" class="ptg ptg-0"> </text>
		<rect x="408.5" y="0.75" fill="#141414" width="9.49" height="20.49"/>
		<text dy="-0.25em" x="408.5" y="18.98" textLength="9.3" class="ptg ptg-0"> </text>
		<rect x="417.8" y="0.75" fill="#141414" width="9.49" height="20.49"/>
		<text dy="-0.25em" x="417.8" y="18.98" textLength="9.3" class="ptg ptg-0"> </text>
		<rect x="427.1" y="0.75" fill="#141414" width="9.49" height="20.49"/>
		<text dy="-0.25em" x="427.1" y="18.98" textLength="9.3" class="ptg ptg-0"> </text>
		<rect x="436.4" y="0.75" fill="#141414" width="9.49" height="20.49"/>
		<text dy="-0.25em" x="436.4" y="18.98" textLength="9.3" class="ptg ptg-0"> </text>
		<rect x="445.7" y="0.75" fill="#141414" width="9.49" height="20.49"/>
		<text dy="-0.25em" x="445.7" y="18.98" textLength="9.3" class="ptg ptg-0"> </text>
		<rect x="455.0" y="0.75" fill="#141414" width="9.49" height="20.49"/>
		<text dy="-0.25em" x="455.0" y="18.98" textLength="9.3" class="ptg ptg-0"> </text>
		<rect x="464.3" y="0.75" fill="#141414" width="9.49" height="20.49"/>
		<text dy="-0.25em" x="464.3" y="18.98" textLength="9.3" class="ptg ptg-0"> </text>
		<rect x="473.6" y="0.75" fill="#141414" width="9.49" height="20.49"/>
		<text dy="-0.25em" x="473.6" y="18.98" textLength="9.3" class="ptg ptg-0"> </text>
		<rect x="482.9" y="0.75" fill="#141414" width="9.49" height="20.49"/>
		<text dy="-0.25em" x="482.9" y="18.98" textLength="9.3" class="ptg ptg-0"> </text>
		<rect x="492.2" y="0.75" fill="#141414" width="9.49" height="20.49"/>
		<text dy="-0.25em" x="492.2" y="18.98" textLength="9.3" class="ptg ptg-0"> </text>
		<rect x="501.5" y="0.75" fill="#141414" width="9.49" height="20.49"/>
		<text dy="-0.25em" x="501.5" y="18.98" textLength="9.3" class="ptg ptg-0"> </text>
		<rect x="510.8" y="0.75" fill="#141414" width="9.49" height="20.49"/>
		<text dy="-0.25em" x="510.8" y="18.98" textLength="9.3" class="ptg ptg-0"> </text>
		<rect x="520.1" y="0.75" fill="#141414" width="9.49" height="20.49"/>
		<text dy="-0.25em" x="520.1" y="18.98" textLength="9.3" class="ptg ptg-0"> </text>
		<rect x="529.4" y="0.75" fill="#141414" width="9.49" height="20.49"/>
		<text dy="-0.25em" x="529.4" y="18.98" textLength="9.3" class="ptg ptg-0"> </text>
		<rect x="538.7" y="0.75" fill="#141414" width="9.49" height="20.49"/>
		<text dy="-0.25em" x="538.7" y="18.98" textLength="9.3" class="ptg ptg-0"> </text>
		<rect x="548.0" y="0.75" fill="#141414" width="9.49" height="20.49"/>
		<text dy="-0.25em" x="548.0" y="18.98" textLength="9.3" class="ptg ptg-0"> </text>
		<rect x="557.3" y="0.75" fill="#141414" width="9.49" height="20.49"/>
		<text dy="-0.25em" x="557.3" y="18.98" textLength="9.3" class="ptg ptg-0"> </text>
		<rect x="566.6" y="0.75" fill="#141414" width="9.49" height="20.49"/>
		<text dy="-0.25em" x="566.6" y="18.98" textLength="9.3" class="ptg ptg-0"> </text>
		<rect x="575.9" y="0.75" fill="#141414" width="9.49" height="20.49"/>
		<text dy="-0.25em" x="575.9" y="18.98" textLength="9.3" class="ptg ptg-0"> </text>
		<rect x="585.2" y="0.75" fill="#141414" width="9.49" height="20.49"/>
		<text dy="-0.25em" x="585.2" y="18.98" textLength="9.3" class="ptg ptg-0"> </text>
		<rect x="594.5" y="0.75" fill="#141414" width="9.49" height="20.49"/>
		<text dy="-0.25em" x="594.5" y="18.98" textLength="9.3" class="ptg ptg-0"> </text>
		<rect x="603.8" y="0.75" fill="#141414" width="9.49" height="20.49"/>
		<text dy="-0.25em" x="603.8" y="18.98" textLength="9.3" class="ptg ptg-0"> </text>
		<rect x="613.1" y="0.75" fill="#141414" width="9.49" height="20.49"/>
		<text dy="-0.25em" x="613.1" y="18.98" textLength="9.3" class="ptg ptg-0"> </text>
		<rect x="622.4" y="0.75" fill="#141414" width="9.49" height="20.49"/>
		<text dy="-0.25em" x="622.4" y="18.98" textLength="9.3" class="ptg ptg-0"> </text>
		<rect x="631.7" y="0.75" fill="#141414" width="9.49" height="20.49"/>
		<text dy="-0.25em" x="631.7" y="18.98" textLength="9.3" class="ptg ptg-0"> </text>
		<rect x="641.0" y="0.75" fill="#141414" width="9.49" height="20.49"/>
		<text dy="-0.25em" x="641.0" y="18.98" textLength="9.3" class="ptg ptg-0"> </text>
		<rect x="650.3" y="0.75" fill="#141414" width="9.49" height="20.49"/>
		<text dy="-0.25em" x="650.3" y="18.98" textLength="9.3" class="ptg ptg-0"> </text>
		<rect x="659.6" y="0.75" fill="#141414" width="9.49" height="20.49"/>
		<text dy="-0.25em" x="659.6" y="18.98" textLength="9.3" class="ptg ptg-0"> </text>
		<rect x="668.9" y="0.75" fill="#141414" width="9.49" height="20.49"/>
		<text dy="-0.25em" x="668.9" y="18.98" textLength="9.3" class="ptg ptg-0"> </text>
		<rect x="678.2" y="0.75" fill="#141414" width="9.49" height="20.49"/>
		<text dy="-0.25em" x="678.2" y="18.98" textLength="9.3" class="ptg ptg-0"> </text>
		<rect x="687.5" y="0.75" fill="#141414" width="9.49" height="20.49"/>
		<text dy="-0.25em" x="687.5" y="18.98" textLength="9.3" class="ptg ptg-0"> </text>
		<rect x="696.8" y="0.75" fill="#141414" width="9.49" height="20.49"/>
		<text dy="-0.25em" x="696.8" y="18.98" textLength="9.3" class="ptg ptg-0"> </text>
		<rect x="706.1" y="0.75" fill="#141414" width="9.49" height="20.49"/>
		<text dy="-0.25em" x="706.1" y="18.98" textLength="9.3" class="ptg ptg-0"> </text>
		<rect x="715.4" y="0.75" fill="#141414" width="9.49" height="20.49"/>
		<text dy="-0.25em" x="715.4" y="18.98" textLength="9.3" class="ptg ptg-0"> </text>
		<rect x="724.7" y="0.75" fill="#141414" width="9.49" height="20.49"/>
		<text dy="-0.25em" x="724.7" y="18.98" textLength="9.3" class="ptg ptg-0"> </text>
		<rect x="734.0" y="0.75" fill="#141414" width="9.49" height="20.49"/>
		<text dy="-0.25em" x="734.0" y="18.98" textLength="9.3" class="ptg ptg-0"> </text>
		<rect x="743.3" y="0.75" fill="#141414" width="9.49" height="20.49"/>
		<text dy="-0.25em" x="743.3" y="18.98" textLength="9.3" class="ptg ptg-0"> </text>
		<rect x="752.6" y="0.75" fill="#141414" width="9.49" height="20.49"/>
		<text dy="-0.25em" x="752.6" y="18.98" textLength="9.3" class="ptg ptg-0"> </text>
		<rect x="761.9" y="0.75" fill="#141414" width="9.49" height="20.49"/>
		<text dy="-0.25em" x="761.9" y="18.98" textLength="9.3" class="ptg ptg-0"> </text>
		<rect x="771.2" y="0.75" fill="#141414" width="9.49" height="20.49"/>
		<text dy="-0.25em" x="771.2" y="18.98" textLength="9.3" class="ptg ptg-0"> </text>
		<rect x="780.5" y="0.75" fill="#141414" width="9.49" height="20.49"/>
		<text dy="-0.25em" x="780.5" y="18.98" textLength="9.3" class="ptg ptg-0"> </text>
		<rect x="789.8" y="0.75" fill="#141414" width="9.49" height="20.49"/>
		<text dy="-0.25em" x="789.8" y="18.98" textLength="9.3" class="ptg ptg-0"> </text>
		<rect x="799.1" y="0.75" fill="#141414" width="9.49" height="20.49"/>
		<text dy="-0.25em" x="799.1" y="18.98" textLength="9.3" class="ptg ptg-0"> </text>
		<rect x="808.4" y="0.75" fill="#141414" width="9.49" height="20.49"/>
		<text dy="-0.25em" x="808.4" y="18.98" textLength="9.3" class="ptg ptg-0"> </text>
		<rect x="817.7" y="0.75" fill="#141414" width="9.49" height="20.49"/>
		<text dy="-0.25em" x="817.7" y="18.98" textLength="9.3" class="ptg ptg-0"> </text>
		<rect x="827.0" y="0.75" fill="#141414" width="9.49" height="20.49"/>
		<text dy="-0.25em" x="827.0" y="18.98" textLength="9.3" class="ptg ptg-0"> </text>
		<rect x="836.3" y="0.75" fill="#141414" width="9.49" height="20.49"/>
		<text dy="-0.25em" x="836.3" y="18.98" textLength="9.3" class="ptg ptg-0"> </text>
		<rect x="845.6" y="0.75" fill="#141414" width="9.49" height="20.49"/>
		<text dy="-0.25em" x="845.6" y="18.98" textLength="9.3" class="ptg ptg-0"> </text>
		<rect x="854.9" y="0.75" fill="#141414" width="9.49" height="20.49"/>
		<text dy="-0.25em" x="854.9" y="18.98" textLength="9.3" class="ptg ptg-0"> </text>
		<rect x="864.2" y="0.75" fill="#141414" width="9.49" height="20.49"/>
		<text dy="-0.25em" x="864.2" y="18.98" textLength="9.3" class="ptg ptg-0"> </text>
		<rect x="873.5" y="0.75" fill="#141414" width="9.49" height="20.49"/>
		<text dy="-0.25em" x="873.5" y="18.98" textLength="9.3" class="ptg ptg-0"> </text>
		<rect x="882.8" y="0.75" fill="#141414" width="9.49" height="20.49"/>
		<text dy="-0.25em" x="882.8" y="18.98" textLength="9.3" class="ptg ptg-0"> </text>
		<rect x="892.1" y="0.75" fill="#141414" width="9.49" height="20.49"/>
		<text dy="-0.25em" x="892.1" y="18.98" textLength="9.3" class="ptg ptg-0"> </text>
		<rect x="901.4" y="0.75" fill="#141414" width="9.49" height="20.49"/>
		<text dy="-0.25em" x="901.4" y="18.98" textLength="9.3" class="ptg ptg-0"> </text>
		<rect x="910.7" y="0.75" fill="#141414" width="9.49" height="20.49"/>
		<text dy="-0.25em" x="910.7" y="18.98" textLength="9.3" class="ptg ptg-0"> </text>
		<rect x="920.0" y="0.75" fill="#141414" width="9.49" height="20.49"/>
		<text dy="-0.25em" x="920.0" y="18.98" textLength="9.3" class="ptg ptg-0"> </text>
		<rect x="929.3" y="0.75" fill="#141414" width="9.49" height="20.49"/>
		<text dy="-0.25em" x="929.3" y="18.98" textLength="9.3" class="ptg ptg-0"> </text>
		<rect x="938.6" y="0.75" fill="#141414" width="9.49" height="20.49"/>
		<text dy="-0.25em" x="938.6" y="18.98" textLength="9.3" class="ptg ptg-0"> </text>
		<rect x="947.9" y="0.75" fill="#141414" width="9.49" height="20.49"/>
		<text dy="-0.25em" x="947.9" y="18.98" textLength="9.3" class="ptg ptg-0"> </text>
		<rect x="957.2" y="0.75" fill="#141414" width="9.49" height="20.49"/>
		<text dy="-0.25em" x="957.2" y="18.98" textLength="9.3" class="ptg ptg-0"> </text>
		<rect x="966.5" y="0.75" fill="#141414" width="9.49" height="20.49"/>
		<text dy="-0.25em" x="966.5" y="18.98" textLength="9.3" class="ptg ptg-0"> </text>
		<rect x="975.8" y="0.75" fill="#141414" width="9.49" height="20.49"/>
		<text dy="-0.25em" x="975.8" y="18.98" textLength="9.3" class="ptg ptg-0"> </text>
		<rect x="985.1" y="0.75" fill="#141414" width="9.49" height="20.49"/>
		<text dy="-0.25em" x="985.1" y="18.98" textLength="9.3" class="ptg ptg-0"> </text>
		<rect x="994.4" y="0.75" fill="#141414" width="9.49" height="20.49"/>
		<text dy="-0.25em" x="994.4" y="18.98" textLength="9.3" class="ptg ptg-0"> </text>
		<rect x="1003.7" y="0.75" fill="#141414" width="9.49" height="20.49"/>
		<text dy="-0.25em" x="1003.7" y="18.98" textLength="9.3" class="ptg ptg-0"> </text>
		<rect x="1013.0" y="0.75" fill="#141414" width="9.49" height="20.49"/>
		<text dy="-0.25em" x="1013.0" y="18.98" textLength="9.3" class="ptg ptg-0"> </text>
		<rect x="1022.3" y="0.75" fill="#141414" width="9.49" height="20.49"/>
		<text dy="-0.25em" x="1022.3" y="18.98" textLength="9.3" class="ptg ptg-0"> </text>
		<rect x="1031.6" y="0.75" fill="#141414" width="9.49" height="20.49"/>
		<text dy="-0.25em" x="1031.6" y="18.98" textLength="9.3" class="ptg ptg-0"> </text>
		<rect x="1040.9" y="0.75" fill="#141414" width="9.49" height="20.49"/>
		<text dy="-0.25em" x="1040.9" y="18.98" textLength="9.3" class="ptg ptg-0"> </text>
		<rect x="1050.2" y="0.75" fill="#141414" width="9.49" height="20.49"/>
		<text dy="-0.25em" x="1050.2" y="18.98" textLength="9.3" class="ptg ptg-0"> </text>
		<rect x="1059.5" y="0.75" fill="#141414" width="9.49" height="20.49"/>
		<text dy="-0.25em" x="1059.5" y="18.98" textLength="9.3" class="ptg ptg-0"> </text>
		<rect x="1068.8" y="0.75" fill="#141414" width="9.49" height="20.49"/>
		<text dy="-0.25em" x="1068.8" y="18.98" textLength="9.3" class="ptg ptg-0"> </text>
		<rect x="1078.1" y="0.75" fill="#141414" width="9.49" height="20.49"/>
		<text dy="-0.25em" x="1078.1" y="18.98" textLength="9.3" class="ptg ptg-0"> </text>
		<rect x="1087.4" y="0.75" fill="#141414" width="9.49" height="20.49"/>
		<text dy="-0.25em" x="1087.4" y="18.98" textLength="9.3" class="ptg ptg-0"> </text>
		<rect x="1096.7" y="0.75" fill="#141414" width="9.49" height="20.49"/>
		<text dy="-0.25em" x="1096.7" y="18.98" textLength="9.3" class="ptg ptg-0"> </text>
		<rect x="1106.0" y="0.75" fill="#141414" width="9.49" height="20.49"/>
		<text dy="-0.25em" x="1106.0" y="18.98" textLength="9.3" class="ptg ptg-0"> </text>
		<rect x="1115.3" y="0.75" fill="#141414" width="9.49" height="20.49"/>
		<text dy="-0.25em" x="1115.3" y="18.98" textLength="9.3" class="ptg ptg-0"> </text>
		<rect x="1124.6" y="0.75" fill="#141414" width="9.49" height="20.49"/>
		<text dy="-0.25em" x="1124.6" y="18.98" textLength="9.3" class="ptg ptg-0"> </text>
		<rect x="1133.9" y="0.75" fill="#141414" width="9.49" height="20.49"/>
		<text dy="-0.25em" x="1133.9" y="18.98" textLength="9.3" class="ptg ptg-0"> </text>
		<rect x="1143.2" y="0.75" fill="#141414" width="9.49" height="20.49"/>
		<text dy="-0.25em" x="1143.2" y="18.98" textLength="9.3" class="ptg ptg-0"> </text>
		<rect x="1152.5" y="0.75" fill="#141414" width="9.49" height="20.49"/>
		<text dy="-0.25em" x="1152.5" y="18.98" textLength="9.3" class="ptg ptg-0"> </text>
		<rect x="1161.8" y="0.75" fill="#141414" width="9.49" height="20.49"/>
		<text dy="-0.25em" x="1161.8" y="18.98" textLength="9.3" class="ptg ptg-0"> </text>
		<rect x="1171.1" y="0.75" fill="#141414" width="9.49" height="20.49"/>
		<text dy="-0.25em" x="1171.1" y="18.98" textLength="9.3" class="ptg ptg-0"> </text>
		<rect x="1180.4" y="0.75" fill="#141414" width="9.49" height="20.49"/>
		<text dy="-0.25em" x="1180.4" y="18.98" textLength="9.3" class="ptg ptg-0"> </text>
		<rect x="1189.7" y="0.75" fill="#141414" width="9.49" height="20.49"/>
		<text dy="-0.25em" x="1189.7" y="18.98" textLength="9.3" class="ptg ptg-0"> </text>
		<rect x="1199.0" y="0.75" fill="#141414" width="9.49" height="20.49"/>
		<text dy="-0.25em" x="1199.0" y="18.98" textLength="9.3" class="ptg ptg-0"> </text>
		<rect x="1208.3" y="0.75" fill="#141414" width="9.49" height="20.49"/>
		<text dy="-0.25em" x="1208.3" y="18.98" textLength="9.3" class="ptg ptg-0"> </text>
		<rect x="1217.6" y="0.75" fill="#141414" width="9.49" height="20.49"/>
		<text dy="-0.25em" x="1217.6" y="18.98" textLength="9.3" class="ptg ptg-0"> </text>
		<rect x="1226.9" y="0.75" fill="#141414" width="9.49" height="20.49"/>
		<text dy="-0.25em" x="1226.9" y="18.98" textLength="9.3" class="ptg ptg-0"> </text>
		<rect x="1236.2" y="0.75" fill="#141414" width="9.49" height="20.49"/>
		<text dy="-0.25em" x="1236.2" y="18.98" textLength="9.3" class="ptg ptg-0"> </text>
		<rect x="1245.5" y="0.75" fill="#141414" width="9.49" height="20.49"/>
		<text dy="-0.25em" x="1245.5" y="18.98" textLength="9.3" class="ptg ptg-0"> </text>
		<rect x="1254.8" y="0.75" fill="#141414" width="9.49" height="20.49"/>
		<text dy="-0.25em" x="1254.8" y="18.98" textLength="9.3" class="ptg ptg-0"> </text>
		<rect x="1264.1" y="0.75" fill="#141414" width="9.49" height="20.49"/>
		<text dy="-0.25em" x="1264.1" y="18.98" textLength="9.3" class="ptg ptg-0"> </text>
		<rect x="1273.4" y="0.75" fill="#141414" width="9.49" height="20.49"/>
		<text dy="-0.25em" x="1273.4" y="18.98" textLength="9.3" class="ptg ptg-0"> </text>
		<rect x="1282.7" y="0.75" fill="#141414" width="9.49" height="20.49"/>
		<text dy="-0.25em" x="1282.7" y="18.98" textLength="9.3" class="ptg ptg-0"> </text>
		<rect x="1292.0" y="0.75" fill="#141414" width="9.49" height="20.49"/>
		<text dy="-0.25em" x="1292.0" y="18.98" textLength="9.3" class="ptg ptg-0"> </text>
		<rect x="1301.3" y="0.75" fill="#141414" width="9.49" height="20.49"/>
		<text dy="-0.25em" x="1301.3" y="18.98" textLength="9.3" class="ptg ptg-0"> </text>
		<rect x="1310.6" y="0.75" fill="#141414" width="9.49" height="20.49"/>
		<text dy="-0.25em" x="1310.6" y="18.98" textLength="9.3" class="ptg ptg-0"> </text>
		<rect x="1319.9" y="0.75" fill="#141414" width="9.49" height="20.49"/>
		<text dy="-0.25em" x="1319.9" y="18.98" textLength="9.3" class="ptg ptg-0"> </text>
		<rect x="1329.2" y="0.75" fill="#141414" width="9.49" height="20.49"/>
		<text dy="-0.25em" x="1329.2" y="18.98" textLength="9.3" class="ptg ptg-0"> </text>
		<rect x="1338.5" y="0.75" fill="#141414" width="9.49" height="20.49"/>
		<text dy="-0.25em" x="1338.5" y="18.98" textLength="9.3" class="ptg ptg-0"> </text>
		<rect x="1347.8" y="0.75" fill="#141414" width="9.49" height="20.49"/>
		<text dy="-0.25em" x="1347.8" y="18.98" textLength="9.3" class="ptg ptg-0"> </text>
		<rect x="1357.1" y="0.75" fill="#141414" width="9.49" height="20.49"/>
		<text dy="-0.25em" x="1357.1" y="18.98" textLength="9.3" class="ptg ptg-0"> </text>
		<rect x="1366.4" y="0.75" fill="#141414" width="9.49" height="20.49"/>
		<text dy="-0.25em" x="1366.4" y="18.98" textLength="9.3" class="ptg ptg-0"> </text>
		<rect x="1375.7" y="0.75" fill="#141414" width="9.49" height="20.49"/>
		<text dy="-0.25em" x="1375.7" y="18.98" textLength="9.3" class="ptg ptg-0"> </text>
		<rect x="1385.0" y="0.75" fill="#141414" width="9.49" height="20.49"/>
		<text dy="-0.25em" x="1385.0" y="18.98" textLength="9.3" class="ptg ptg-0"> </text>
		<rect x="1394.3" y="0.75" fill="#141414" width="9.49" height="20.49"/>
		<text dy="-0.25em" x="1394.3" y="18.98" textLength="9.3" class="ptg ptg-0"> </text>
		<rect x="1403.6" y="0.75" fill="#141414" width="9.49" height="20.49"/>
		<text dy="-0.25em" x="1403.6" y="18.98" textLength="9.3" class="ptg ptg-0"> </text>
		<rect x="1412.9" y="0.75" fill="#141414" width="9.49" height="20.49"/>
		<text dy="-0.25em" x="1412.9" y="18.98" textLength="9.3" class="ptg ptg-0"> </text>
		<rect x="1422.2" y="0.75" fill="#141414" width="9.49" height="20.49"/>
		<text dy="-0.25em" x="1422.2" y="18.98" textLength="9.3" class="ptg ptg-0"> </text>
		<rect x="1431.5" y="0.75" fill="#141414" width="9.49" height="20.49"/>
		<text dy="-0.25em" x="1431.5" y="18.98" textLength="9.3" class="ptg ptg-0"> </text>
		<rect x="1440.8" y="0.75" fill="#141414" width="9.49" height="20.49"/>
		<text dy="-0.25em" x="1440.8" y="18.98" textLength="9.3" class="ptg ptg-0"> </text>
		<rect x="1450.1" y="0.75" fill="#141414" width="9.49" height="20.49"/>
		<text dy="-0.25em" x="1450.1" y="18.98" textLength="9.3" class="ptg ptg-0"> </text>
		<rect x="1459.4" y="0.75" fill="#141414" width="9.49" height="20.49"/>
		<text dy="-0.25em" x="1459.4" y="18.98" textLength="9.3" class="ptg ptg-0"> </text>
		<rect x="1468.7" y="0.75" fill="#141414" width="9.49" height="20.49"/>
		<text dy="-0.25em" x="1468.7" y="18.98" textLength="9.3" class="ptg ptg-0"> </text>
		<rect x="1478.0" y="0.75" fill="#141414" width="9.49" height="20.49"/>
		<text dy="-0.25em" x="1478.0" y="18.98" textLength="9.3" class="ptg ptg-0"> </text>
		<rect x="1487.3" y="0.75" fill="#141414" width="9.49" height="20.49"/>
		<text dy="-0.25em" x="1487.3" y="18.98" textLength="9.3" class="ptg ptg-0"> </text>
		<rect x="1496.6" y="0.75" fill="#141414" width="170.75" height="20.49"/>
		<text dy="-0.25em" x="1496.6" y="18.98" textLength="167.4" class="ptg ptg-1"> ▶ (A)pplications </text>
		<rect x="1664.0" y="0.75" fill="#141414" width="9.49" height="20.49"/>
		<text dy="-0.25em" x="1664.0" y="18.98" textLength="9.3" class="ptg ptg-0"> </text>
		<rect x="-0.7" y="380.25" fill="#141414" width="9.49" height="20.49"/>
		<text dy="-0.25em" x="-0.7" y="398.48" textLength="9.3" class="ptg ptg-2"> </text>
		<rect x="8.6" y="380.25" fill="#141414" width="9.49" height="20.49"/>
		<text dy="-0.25em" x="8.6" y="398.48" textLength="9.3" class="ptg ptg-2"> </text>
		<rect x="17.9" y="380.25" fill="#141414" width="9.49" height="20.49"/>
		<text dy="-0.25em" x="17.9" y="398.48" textLength="9.3" class="ptg ptg-2"> </text>
		<rect x="27.2" y="380.25" fill="#141414" width="9.49" height="20.49"/>
		<text dy="-0.25em" x="27.2" y="398.48" textLength="9.3" class="ptg ptg-2"> </text>
		<rect x="36.5" y="380.25" fill="#141414" width="9.49" height="20.49"/>
		<text dy="-0.25em" x="36.5" y="398.48" textLength="9.3" class="ptg ptg-2"> </text>
		<rect x="45.8" y="380.25" fill="#141414" width="9.49" height="20.49"/>
		<text dy="-0.25em" x="45.8" y="398.48" textLength="9.3" class="ptg ptg-2"> </text>
		<rect x="55.1" y="380.25" fill="#141414" width="9.49" height="20.49"/>
		<text dy="-0.25em" x="55.1" y="398.48" textLength="9.3" class="ptg ptg-2"> </text>
		<rect x="64.4" y="380.25" fill="#141414" width="9.49" height="20.49"/>
		<text dy="-0.25em" x="64.4" y="398.48" textLength="9.3" class="ptg ptg-2"> </text>
		<rect x="73.7" y="380.25" fill="#141414" width="9.49" height="20.49"/>
		<text dy="-0.25em" x="73.7" y="398.48" textLength="9.3" class="ptg ptg-2"> </text>
		<rect x="83.0" y="380.25" fill="#141414" width="9.49" height="20.49"/>
		<text dy="-0.25em" x="83.0" y="398.48" textLength="9.3" class="ptg ptg-2"> </text>
		<rect x="92.3" y="380.25" fill="#141414" width="237.15" height="20.49"/>
		<text dy="-0.25em" x="92.3" y="398.48" textLength="232.5" class="ptg ptg-3">  CTRL_W - Close window  </text>
		<rect x="324.8" y="380.25" fill="#141414" width="9.49" height="20.49"/>
		<text dy="-0.25em" x="324.8" y="398.48" textLength="9.3" class="ptg ptg-2"> </text>
		<rect x="334.1" y="380.25" fill="#141414" width="9.49" height="20.49"/>
		<text dy="-0.25em" x="334.1" y="398.48" textLength="9.3" class="ptg ptg-2"> </text>
		<rect x="343.4" y="380.25" fill="#141414" width="9.49" height="20.49"/>
		<text dy="-0.25em" x="343.4" y="398.48" textLength="9.3" class="ptg ptg-2"> </text>
		<rect x="352.7" y="380.25" fill="#141414" width="9.49" height="20.49"/>
		<text dy="-0.25em" x="352.7" y="398.48" textLength="9.3" class="ptg ptg-2"> </text>
		<rect x="362.0" y="380.25" fill="#141414" width="9.49" height="20.49"/>
		<text dy="-0.25em" x="362.0" y="398.48" textLength="9.3" class="ptg ptg-2"> </text>
		<rect x="371.3" y="380.25" fill="#141414" width="9.49" height="20.49"/>
		<text dy="-0.25em" x="371.3" y="398.48" textLength="9.3" class="ptg ptg-2"> </text>
		<rect x="380.6" y="380.25" fill="#141414" width="9.49" height="20.49"/>
		<text dy="-0.25em" x="380.6" y="398.48" textLength="9.3" class="ptg ptg-2"> </text>
		<rect x="389.9" y="380.25" fill="#141414" width="9.49" height="20.49"/>
		<text dy="-0.25em" x="389.9" y="398.48" textLength="9.3" class="ptg ptg-2"> </text>
		<rect x="399.2" y="380.25" fill="#141414" width="9.49" height="20.49"/>
		<text dy="-0.25em" x="399.2" y="398.48" textLength="9.3" class="ptg ptg-2"> </text>
		<rect x="408.5" y="380.25" fill="#141414" width="9.49" height="20.49"/>
		<text dy="-0.25em" x="408.5" y="398.48" textLength="9.3" class="ptg ptg-2"> </text>
		<rect x="417.8" y="380.25" fill="#141414" width="9.49" height="20.49"/>
		<text dy="-0.25em" x="417.8" y="398.48" textLength="9.3" class="ptg ptg-2"> </text>
		<rect x="427.1" y="380.25" fill="#141414" width="9.49" height="20.49"/>
		<text dy="-0.25em" x="427.1" y="398.48" textLength="9.3" class="ptg ptg-2"> </text>
		<rect x="436.4" y="380.25" fill="#141414" width="9.49" height="20.49"/>
		<text dy="-0.25em" x="436.4" y="398.48" textLength="9.3" class="ptg ptg-2"> </text>
		<rect x="445.7" y="380.25" fill="#141414" width="9.49" height="20.49"/>
		<text dy="-0.25em" x="445.7" y="398.48" textLength="9.3" class="ptg ptg-2"> </text>
		<rect x="455.0" y="380.25" fill="#141414" width="9.49" height="20.49"/>
		<text dy="-0.25em" x="455.0" y="398.48" textLength="9.3" class="ptg ptg-2"> </text>
		<rect x="464.3" y="380.25" fill="#141414" width="9.49" height="20.49"/>
		<text dy="-0.25em" x="464.3" y="398.48" textLength="9.3" class="ptg ptg-2"> </text>
		<rect x="473.6" y="380.25" fill="#141414" width="9.49" height="20.49"/>
		<text dy="-0.25em" x="473.6" y="398.48" textLength="9.3" class="ptg ptg-2"> </text>
		<rect x="482.9" y="380.25" fill="#141414" width="9.49" height="20.49"/>
		<text dy="-0.25em" x="482.9" y="398.48" textLength="9.3" class="ptg ptg-2"> </text>
		<rect x="492.2" y="380.25" fill="#141414" width="9.49" height="20.49"/>
		<text dy="-0.25em" x="492.2" y="398.48" textLength="9.3" class="ptg ptg-2"> </text>
		<rect x="501.5" y="380.25" fill="#141414" width="9.49" height="20.49"/>
		<text dy="-0.25em" x="501.5" y="398.48" textLength="9.3" class="ptg ptg-2"> </text>
		<rect x="510.8" y="380.25" fill="#141414" width="9.49" height="20.49"/>
		<text dy="-0.25em" x="510.8" y="398.48" textLength="9.3" class="ptg ptg-2"> </text>
		<rect x="520.1" y="380.25" fill="#141414" width="9.49" height="20.49"/>
		<text dy="-0.25em" x="520.1" y="398.48" textLength="9.3" class="ptg ptg-2"> </text>
		<rect x="529.4" y="380.25" fill="#141414" width="189.72" height="20.49"/>
		<text dy="-0.25em" x="529.4" y="398.48" textLength="186.0" class="ptg ptg-4">  F12 - Screenshot  </text>
		<rect x="715.4" y="380.25" fill="#141414" width="9.49" height="20.49"/>
		<text dy="-0.25em" x="715.4" y="398.48" textLength="9.3" class="ptg ptg-2"> </text>
		<rect x="724.7" y="380.25" fill="#141414" width="9.49" height="20.49"/>
		<text dy="-0.25em" x="724.7" y="398.48" textLength="9.3" class="ptg ptg-2"> </text>
		<rect x="734.0" y="380.25" fill="#141414" width="9.49" height="20.49"/>
		<text dy="-0.25em" x="734.0" y="398.48" textLength="9.3" class="ptg ptg-2"> </text>
		<rect x="743.3" y="380.25" fill="#141414" width="9.49" height="20.49"/>
		<text dy="-0.25em" x="743.3" y="398.48" textLength="9.3" class="ptg ptg-2"> </text>
		<rect x="752.6" y="380.25" fill="#141414" width="9.49" height="20.49"/>
		<text dy="-0.25em" x="752.6" y="398.48" textLength="9.3" class="ptg ptg-2"> </text>
		<rect x="761.9" y="380.25" fill="#141414" width="9.49" height="20.49"/>
		<text dy="-0.25em" x="761.9" y="398.48" textLength="9.3" class="ptg ptg-2"> </text>
		<rect x="771.2" y="380.25" fill="#141414" width="9.49" height="20.49"/>
		<text dy="-0.25em" x="771.2" y="398.48" textLength="9.3" class="ptg ptg-2"> </text>
		<rect x="780.5" y="380.25" fill="#141414" width="9.49" height="20.49"/>
		<text dy="-0.25em" x="780.5" y="398.48" textLength="9.3" class="ptg ptg-2"> </text>
		<rect x="789.8" y="380.25" fill="#141414" width="9.49" height="20.49"/>
		<text dy="-0.25em" x="789.8" y="398.48" textLength="9.3" class="ptg ptg-2"> </text>
		<rect x="799.1" y="380.25" fill="#141414" width="9.49" height="20.49"/>
		<text dy="-0.25em" x="799.1" y="398.48" textLength="9.3" class="ptg ptg-2"> </text>
		<rect x="808.4" y="380.25" fill="#141414" width="9.49" height="20.49"/>
		<text dy="-0.25em" x="808.4" y="398.48" textLength="9.3" class="ptg ptg-2"> </text>
		<rect x="817.7" y="380.25" fill="#141414" width="9.49" height="20.49"/>
		<text dy="-0.25em" x="817.7" y="398.48" textLength="9.3" class="ptg ptg-2"> </text>
		<rect x="827.0" y="380.25" fill="#141414" width="9.49" height="20.49"/>
		<text dy="-0.25em" x="827.0" y="398.48" textLength="9.3" class="ptg ptg-2"> </text>
		<rect x="836.3" y="380.25" fill="#141414" width="9.49" height="20.49"/>
		<text dy="-0.25em" x="836.3" y="398.48" textLength="9.3" class="ptg ptg-2"> </text>
		<rect x="845.6" y="380.25" fill="#141414" width="9.49" height="20.49"/>
		<text dy="-0.25em" x="845.6" y="398.48" textLength="9.3" class="ptg ptg-2"> </text>
		<rect x="854.9" y="380.25" fill="#141414" width="9.49" height="20.49"/>
		<text dy="-0.25em" x="854.9" y="398.48" textLength="9.3" class="ptg ptg-2"> </text>
		<rect x="864.2" y="380.25" fill="#141414" width="9.49" height="20.49"/>
		<text dy="-0.25em" x="864.2" y="398.48" textLength="9.3" class="ptg ptg-2"> </text>
		<rect x="873.5" y="380.25" fill="#141414" width="9.49" height="20.49"/>
		<text dy="-0.25em" x="873.5" y="398.48" textLength="9.3" class="ptg ptg-2"> </text>
		<rect x="882.8" y="380.25" fill="#141414" width="9.49" height="20.49"/>
		<text dy="-0.25em" x="882.8" y="398.48" textLength="9.3" class="ptg ptg-2"> </text>
		<rect x="892.1" y="380.25" fill="#141414" width="9.49" height="20.49"/>
		<text dy="-0.25em" x="892.1" y="398.48" textLength="9.3" class="ptg ptg-2"> </text>
		<rect x="901.4" y="380.25" fill="#141414" width="9.49" height="20.49"/>
		<text dy="-0.25em" x="901.4" y="398.48" textLength="9.3" class="ptg ptg-2"> </text>
		<rect x="910.7" y="380.25" fill="#141414" width="9.49" height="20.49"/>
		<text dy="-0.25em" x="910.7" y="398.48" textLength="9.3" class="ptg ptg-2"> </text>
		<rect x="920.0" y="380.25" fill="#141414" width="246.64" height="20.49"/>
		<text dy="-0.25em" x="920.0" y="398.48" textLength="241.8" class="ptg ptg-3">  CTRL_F - Toggle layout  </text>
		<rect x="1161.8" y="380.25" fill="#141414" width="9.49" height="20.49"/>
		<text dy="-0.25em" x="1161.8" y="398.48" textLength="9.3" class="ptg ptg-2"> </text>
		<rect x="1171.1" y="380.25" fill="#141414" width="9.49" height="20.49"/>
		<text dy="-0.25em" x="1171.1" y="398.48" textLength="9.3" class="ptg ptg-2"> </text>
		<rect x="1180.4" y="380.25" fill="#141414" width="9.49" height="20.49"/>
		<text dy="-0.25em" x="1180.4" y="398.48" textLength="9.3" class="ptg ptg-2"> </text>
		<rect x="1189.7" y="380.25" fill="#141414" width="9.49" height="20.49"/>
		<text dy="-0.25em" x="1189.7" y="398.48" textLength="9.3" class="ptg ptg-2"> </text>
		<rect x="1199.0" y="380.25" fill="#141414" width="9.49" height="20.49"/>
		<text dy="-0.25em" x="1199.0" y="398.48" textLength="9.3" class="ptg ptg-2"> </text>
		<rect x="1208.3" y="380.25" fill="#141414" width="9.49" height="20.49"/>
		<text dy="-0.25em" x="1208.3" y="398.48" textLength="9.3" class="ptg ptg-2"> </text>
		<rect x="1217.6" y="380.25" fill="#141414" width="9.49" height="20.49"/>
		<text dy="-0.25em" x="1217.6" y="398.48" textLength="9.3" class="ptg ptg-2"> </text>
		<rect x="1226.9" y="380.25" fill="#141414" width="9.49" height="20.49"/>
		<text dy="-0.25em" x="1226.9" y="398.48" textLength="9.3" class="ptg ptg-2"> </text>
		<rect x="1236.2" y="380.25" fill="#141414" width="9.49" height="20.49"/>
		<text dy="-0.25em" x="1236.2" y="398.48" textLength="9.3" class="ptg ptg-2"> </text>
		<rect x="1245.5" y="380.25" fill="#141414" width="9.49" height="20.49"/>
		<text dy="-0.25em" x="1245.5" y="398.48" textLength="9.3" class="ptg ptg-2"> </text>
		<rect x="1254.8" y="380.25" fill="#141414" width="9.49" height="20.49"/>
		<text dy="-0.25em" x="1254.8" y="398.48" textLength="9.3" class="ptg ptg-2"> </text>
		<rect x="1264.1" y="380.25" fill="#141414" width="9.49" height="20.49"/>
		<text dy="-0.25em" x="1264.1" y="398.48" textLength="9.3" class="ptg ptg-2"> </text>
		<rect x="1273.4" y="380.25" fill="#141414" width="9.49" height="20.49"/>
		<text dy="-0.25em" x="1273.4" y="398.48" textLength="9.3" class="ptg ptg-2"> </text>
		<rect x="1282.7" y="380.25" fill="#141414" width="9.49" height="20.49"/>
		<text dy="-0.25em" x="1282.7" y="398.48" textLength="9.3" class="ptg ptg-2"> </text>
		<rect x="1292.0" y="380.25" fill="#141414" width="9.49" height="20.49"/>
		<text dy="-0.25em" x="1292.0" y="398.48" textLength="9.3" class="ptg ptg-2"> </text>
		<rect x="1301.3" y="380.25" fill="#141414" width="9.49" height="20.49"/>
		<text dy="-0.25em" x="1301.3" y="398.48" textLength="9.3" class="ptg ptg-2"> </text>
		<rect x="1310.6" y="380.25" fill="#141414" width="9.49" height="20.49"/>
		<text dy="-0.25em" x="1310.6" y="398.48" textLength="9.3" class="ptg ptg-2"> </text>
		<rect x="1319.9" y="380.25" fill="#141414" width="9.49" height="20.49"/>
		<text dy="-0.25em" x="1319.9" y="398.48" textLength="9.3" class="ptg ptg-2"> </text>
		<rect x="1329.2" y="380.25" fill="#141414" width="9.49" height="20.49"/>
		<text dy="-0.25em" x="1329.2" y="398.48" textLength="9.3" class="ptg ptg-2"> </text>
		<rect x="1338.5" y="380.25" fill="#141414" width="9.49" height="20.49"/>
		<text dy="-0.25em" x="1338.5" y="398.48" textLength="9.3" class="ptg ptg-2"> </text>
		<rect x="1347.8" y="380.25" fill="#141414" width="9.49" height="20.49"/>
		<text dy="-0.25em" x="1347.8" y="398.48" textLength="9.3" class="ptg ptg-2"> </text>
		<rect x="1357.1" y="380.25" fill="#141414" width="9.49" height="20.49"/>
		<text dy="-0.25em" x="1357.1" y="398.48" textLength="9.3" class="ptg ptg-2"> </text>
		<rect x="1366.4" y="380.25" fill="#141414" width="189.72" height="20.49"/>
		<text dy="-0.25em" x="1366.4" y="398.48" textLength="186.0" class="ptg ptg-3">  '!' - Re-palette  </text>
		<rect x="1552.4" y="380.25" fill="#141414" width="9.49" height="20.49"/>
		<text dy="-0.25em" x="1552.4" y="398.48" textLength="9.3" class="ptg ptg-2"> </text>
		<rect x="1561.7" y="380.25" fill="#141414" width="9.49" height="20.49"/>
		<text dy="-0.25em" x="1561.7" y="398.48" textLength="9.3" class="ptg ptg-2"> </text>
		<rect x="1571.0" y="380.25" fill="#141414" width="9.49" height="20.49"/>
		<text dy="-0.25em" x="1571.0" y="398.48" textLength="9.3" class="ptg ptg-2"> </text>
		<rect x="1580.3" y="380.25" fill="#141414" width="9.49" height="20.49"/>
		<text dy="-0.25em" x="1580.3" y="398.48" textLength="9.3" class="ptg ptg-2"> </text>
		<rect x="1589.6" y="380.25" fill="#141414" width="9.49" height="20.49"/>
		<text dy="-0.25em" x="1589.6" y="398.48" textLength="9.3" class="ptg ptg-2"> </text>
		<rect x="1598.9" y="380.25" fill="#141414" width="9.49" height="20.49"/>
		<text dy="-0.25em" x="1598.9" y="398.48" textLength="9.3" class="ptg ptg-2"> </text>
		<rect x="1608.2" y="380.25" fill="#141414" width="9.49" height="20.49"/>
		<text dy="-0.25em" x="1608.2" y="398.48" textLength="9.3" class="ptg ptg-2"> </text>
		<rect x="1617.5" y="380.25" fill="#141414" width="9.49" height="20.49"/>
		<text dy="-0.25em" x="1617.5" y="398.48" textLength="9.3" class="ptg ptg-2"> </text>
		<rect x="1626.8" y="380.25" fill="#141414" width="9.49" height="20.49"/>
		<text dy="-0.25em" x="1626.8" y="398.48" textLength="9.3" class="ptg ptg-2"> </text>
		<rect x="1636.1" y="380.25" fill="#141414" width="9.49" height="20.49"/>
		<text dy="-0.25em" x="1636.1" y="398.48" textLength="9.3" class="ptg ptg-2"> </text>
		<rect x="1645.4" y="380.25" fill="#141414" width="9.49" height="20.49"/>
		<text dy="-0.25em" x="1645.4" y="398.48" textLength="9.3" class="ptg ptg-2"> </text>
		<rect x="1654.7" y="380.25" fill="#141414" width="9.49" height="20.49"/>
		<text dy="-0.25em" x="1654.7" y="398.48" textLength="9.3" class="ptg ptg-2"> </text>
		<rect x="1664.0" y="380.25" fill="#141414" width="9.49" height="20.49"/>
		<text dy="-0.25em" x="1664.0" y="398.48" textLength="9.3" class="ptg ptg-2"> </text>
	</g>
</svg>